<svg width="261" height="128" viewBox="0 0 261 128" fill="none" xmlns="http://www.w3.org/2000/svg">
<path d="M16 98.4829L34.6912 29.0196" stroke="#2A58D0" stroke-width="15" stroke-linecap="square"/>
<path d="M46.1359 29.3241L64.6805 98.8266" stroke="white" stroke-width="15" stroke-linecap="square"/>
<path d="M91 99.934L91.0759 28" stroke="#2A58D0" stroke-width="15" stroke-linecap="square"/>
<path d="M91 100L126 100.076" stroke="white" stroke-width="15" stroke-linecap="square"/>
<path d="M156 30.5L188 97.5" stroke="#2A58D0" stroke-width="15" stroke-linecap="square"/>
<path d="M152 99.934L152.076 28" stroke="white" stroke-width="15" stroke-linecap="square"/>
<path d="M192 99.934L192.076 28" stroke="white" stroke-width="15" stroke-linecap="square"/>
<path d="M228.21 40.4748C228.46 40.725 228.865 40.725 229.116 40.4748L229.568 40.022C229.819 39.7718 229.819 39.3662 229.568 39.116L228.138 37.6864L229.568 36.2564C229.818 36.0062 229.818 35.6007 229.568 35.3505L229.115 34.8977C228.865 34.6475 228.46 34.6475 228.209 34.8977L225.874 37.2332C225.624 37.4835 225.624 37.889 225.874 38.1392L228.21 40.4748ZM232.053 40.0224L232.506 40.4752C232.756 40.7254 233.162 40.7254 233.412 40.4752L235.748 38.1396C235.998 37.8894 235.998 37.4839 235.748 37.2336L233.412 34.8981C233.162 34.6479 232.756 34.6479 232.506 34.8981L232.053 35.3509C231.803 35.6011 231.803 36.0066 232.053 36.2568L233.483 37.6864L232.053 39.1164C231.803 39.3666 231.803 39.7722 232.053 40.0224ZM242.981 46.6539H233.274C233.245 47.447 232.685 47.935 231.964 47.935H229.53C228.781 47.935 228.208 47.2356 228.218 46.6539H218.641C218.288 46.6539 218 46.9422 218 47.2944V47.935C218 49.3442 219.153 50.4971 220.562 50.4971H241.059C242.468 50.4971 243.621 49.3442 243.621 47.935V47.2944C243.621 46.9422 243.333 46.6539 242.981 46.6539ZM241.059 31.9216C241.059 30.8647 240.195 30 239.138 30H222.484C221.427 30 220.562 30.8647 220.562 31.9216V45.3728H241.059V31.9216ZM238.497 42.8107H223.124V32.5621H238.497V42.8107Z" fill="white"/>
<path d="M223.478 86.2125L230.212 79.479L228.004 77.2712L224.918 80.3577C224.881 80.3946 224.837 80.4239 224.789 80.4438C224.741 80.4638 224.69 80.4741 224.637 80.4741C224.585 80.4741 224.534 80.4638 224.486 80.4438C224.437 80.4239 224.394 80.3946 224.357 80.3577L223.796 79.7968C223.641 79.6416 223.641 79.3904 223.796 79.2358L226.883 76.1493L225.199 74.4654C224.579 73.8454 223.574 73.8454 222.954 74.4654L218.465 78.9546C217.846 79.5746 217.845 80.5794 218.465 81.1994L223.478 86.2125ZM242.917 80.3677C243.856 79.429 243.855 77.9072 242.917 76.9684L240.653 74.7041C239.714 73.7653 238.192 73.7653 237.253 74.7041L234.95 77.0065L240.614 82.6711L242.917 80.3677ZM233.817 78.1394L218.955 92.9996L218.016 98.376C217.89 99.1011 218.521 99.7326 219.247 99.605L224.624 98.6622L239.482 83.8035L233.817 78.1394ZM243.156 92.4226L241.473 90.7392L238.386 93.8258C238.231 93.9809 237.98 93.9809 237.826 93.8258L237.265 93.2648C237.11 93.1097 237.11 92.8585 237.265 92.7039L240.351 89.6173L238.142 87.4085L231.408 94.142L236.422 99.1561C237.042 99.7762 238.047 99.7762 238.667 99.1561L243.156 94.6675C243.776 94.0475 243.776 93.0426 243.156 92.4226Z" fill="white"/>
</svg>
